<svg width="374" height="374" viewBox="0 0 374 374" fill="none" xmlns="http://www.w3.org/2000/svg">
<path d="M171.549 5.02029C181.591 1.75739 192.409 1.75739 202.451 5.02029L281.465 30.6935C291.507 33.9564 300.259 40.3147 306.465 48.8571L355.298 116.071C361.505 124.613 364.848 134.901 364.848 145.46V228.54C364.848 239.099 361.505 249.387 355.298 257.929L306.465 325.143C300.259 333.685 291.507 340.044 281.465 343.306L202.451 368.98C192.409 372.243 181.591 372.243 171.549 368.98L92.535 343.306C82.4929 340.044 73.7414 333.685 67.535 325.143L18.7016 257.929C12.4952 249.387 9.15244 239.099 9.15244 228.54V145.46C9.15244 134.901 12.4952 124.613 18.7016 116.071L67.535 48.8571C73.7414 40.3147 82.4928 33.9564 92.535 30.6935L171.549 5.02029Z" fill="#DA0000"/>
<path d="M173.094 64.7756C182.132 61.839 191.868 61.839 200.906 64.7756L247.592 79.9448C256.63 82.8814 264.506 88.6038 270.092 96.292L298.945 136.005C304.531 143.694 307.539 152.953 307.539 162.456V211.544C307.539 221.047 304.531 230.306 298.945 237.995L270.092 277.708C264.506 285.396 256.63 291.119 247.592 294.055L200.906 309.224C191.868 312.161 182.132 312.161 173.094 309.224L126.408 294.055C117.37 291.119 109.494 285.396 103.908 277.708L75.0548 237.995C69.469 230.306 66.4605 221.047 66.4605 211.544L66.4605 162.456C66.4605 152.953 69.469 143.694 75.0548 136.005L103.908 96.292C109.494 88.6038 117.37 82.8814 126.408 79.9448L173.094 64.7756Z" fill="white" stroke="#B91A1A" stroke-width="10"/>
<path d="M177.729 120.012C183.755 118.054 190.245 118.054 196.271 120.012L218.874 127.357C224.9 129.314 230.151 133.129 233.874 138.255L247.844 157.483C251.568 162.608 253.574 168.781 253.574 175.116V198.884C253.574 205.219 251.568 211.392 247.844 216.517L233.874 235.745C230.151 240.871 224.9 244.686 218.874 246.643L196.271 253.988C190.245 255.946 183.755 255.946 177.729 253.988L155.126 246.643C149.1 244.686 143.849 240.871 140.126 235.745L126.156 216.517C122.432 211.392 120.426 205.219 120.426 198.884V175.116C120.426 168.781 122.432 162.608 126.156 157.483L140.126 138.255C143.849 133.129 149.1 129.314 155.126 127.357L177.729 120.012Z" fill="#0055A4"/>
<path d="M197.816 115.257C190.786 112.973 183.214 112.973 176.184 115.257L153.58 122.601C146.551 124.885 140.425 129.336 136.08 135.316L122.11 154.544C117.766 160.524 115.426 167.725 115.426 175.116V198.884C115.426 206.275 117.766 213.476 122.11 219.456L136.08 238.684C140.425 244.664 146.551 249.115 153.58 251.399L176.184 258.743C183.214 261.027 190.786 261.027 197.816 258.743L220.42 251.399C227.449 249.115 233.575 244.664 237.92 238.684L251.89 219.456C256.234 213.476 258.574 206.275 258.574 198.884V175.116C258.574 167.725 256.234 160.524 251.89 154.544L237.92 135.316C233.575 129.336 227.449 124.885 220.42 122.601L197.816 115.257Z" stroke="#0055A4" stroke-opacity="0.79" stroke-width="10"/>
</svg>
